# xmcd
#
# Track frame offsets:
#	150
#	21687
#	43027
#	65532
#	85385
#	106247
#	128217
#	154455
#	176138
#	197261
#	219122
#	240480
#	257621
#	272491
#	295402
#	317640
#	339745
#
# Disc length: 4715 seconds
#
# Revision: 0
# Processed by: cddbd v1.4PL0 Copyright (c) Steve Scherf et al.
# Submitted via: EasyCDDAExtractor 4.5.0.2
#
DISCID=fb126911
DTITLE=Santana - Bestseller
DYEAR=2000
DGENRE=
TTITLE0=Put Your Lights On
TTITLE1=Africa Bamba
TTITLE2=Smooth
TTITLE3=Maria Maria
TTITLE4=Corazon Espinado
TTITLE5=BL Farol
TTITLE6=Love Of My Life
TTITLE7=Chill Out
TTITLE8=Samba Pati
TTITLE9=Flor D'Luna
TTITLE10=I Love You Much Too Much
TTITLE11=Before We Go
TTITLE12=Blace Magic Woman
TTITLE13=Europa
TTITLE14=Contigo
TTITLE15=Wishing It Was
TTITLE16=Touchdown Raiders
EXTD=
EXTT0=
EXTT1=
EXTT2=
EXTT3=
EXTT4=
EXTT5=
EXTT6=
EXTT7=
EXTT8=
EXTT9=
EXTT10=
EXTT11=
EXTT12=
EXTT13=
EXTT14=
EXTT15=
EXTT16=
PLAYORDER=
